<svg width="64" height="64" viewBox="0 0 64 64" fill="none" xmlns="http://www.w3.org/2000/svg">
<path d="M52 4.00001H22.66C21.333 3.99801 20.06 4.52301 19.12 5.46001L10.46 14.12C9.52301 15.06 8.99801 16.333 9.00001 17.66V57C9.00001 58.657 10.343 60 12 60H52C53.657 60 55 58.657 55 57V7.00001C55 5.34301 53.657 4.00001 52 4.00001ZM20.54 6.88001C20.68 6.73801 20.834 6.61101 21 6.50001V15C21 15.552 20.552 16 20 16H11.5C11.611 15.834 11.738 15.68 11.88 15.54L20.54 6.88001ZM53 57C53 57.552 52.552 58 52 58H12C11.448 58 11 57.552 11 57V18H20C21.657 18 23 16.657 23 15V6.00001H52C52.552 6.00001 53 6.44801 53 7.00001V57Z" fill="white"/>
<path d="M14.0351 43.3528L14.9142 44.0056C14.5952 44.4351 14.3946 44.8436 14.3125 45.231C14.2293 45.6114 14.3797 45.9162 14.7638 46.1453L17.303 47.6573C17.8787 47.9976 18.2115 48.3755 18.3015 48.7911C18.3904 49.1996 18.3111 49.6545 18.0634 50.1557C18.4835 49.7577 18.895 49.5433 19.2979 49.5123C19.6997 49.4744 20.1587 49.6907 20.675 50.1613L22.8565 52.1549C23.1909 52.4594 23.5282 52.5168 23.8683 52.3271C24.2114 52.1335 24.5424 51.8219 24.8614 51.3924L25.7405 52.0452C25.3709 52.543 24.9808 52.9509 24.5703 53.2688C24.1598 53.5868 23.7336 53.7498 23.2916 53.7579C22.8526 53.762 22.4016 53.5516 21.9386 53.1268L19.9152 51.2599C19.6591 51.0261 19.4044 50.8868 19.1512 50.842C18.897 50.7903 18.6238 50.8646 18.3318 51.0649C18.0357 51.2624 17.6999 51.614 17.3243 52.1197L16.397 51.4311C16.7726 50.9254 17.0141 50.5037 17.1215 50.1662C17.2289 49.8287 17.223 49.5472 17.104 49.3218C16.9879 49.0923 16.7789 48.8873 16.477 48.7067L14.0988 47.305C13.5553 46.9886 13.2236 46.6177 13.1035 46.1922C12.9835 45.7668 13.0164 45.3116 13.202 44.8268C13.3877 44.3419 13.6654 43.8505 14.0351 43.3528ZM38.0918 10.9575C38.4614 10.4597 38.8515 10.0519 39.262 9.73392C39.6724 9.41597 40.0972 9.25495 40.5362 9.25086C40.9781 9.24276 41.4306 9.45111 41.8937 9.87591L43.9231 11.7473C44.3078 12.1015 44.7043 12.2216 45.1128 12.1076C45.5213 11.9937 45.9863 11.5855 46.508 10.883L47.4353 11.5716C46.9136 12.2741 46.6593 12.8388 46.6723 13.2657C46.6813 13.6897 46.911 14.0346 47.3613 14.3005L49.7334 15.6977C50.2769 16.0141 50.6087 16.3851 50.7287 16.8105C50.8487 17.2359 50.8159 17.6911 50.6302 18.176C50.4445 18.6609 50.1668 19.1522 49.7972 19.65L48.9181 18.9971C49.2371 18.5676 49.4381 18.1626 49.5213 17.7822C49.6075 17.3978 49.4565 17.0895 49.0684 16.8574L46.5292 15.3454C45.9295 14.9873 45.5927 14.6064 45.5188 14.2027C45.4438 13.7921 45.5595 13.305 45.8658 12.7416C45.4089 13.1807 44.9655 13.4214 44.5357 13.4634C44.1089 13.5014 43.6494 13.2941 43.1573 12.8414L40.9758 10.8478C40.6453 10.5464 40.3086 10.4925 39.9655 10.6861C39.6214 10.8727 39.2898 11.1808 38.9709 11.6103L38.0918 10.9575Z" fill="#EB1F42"/>
<path d="M21.5923 36.8745L27.0958 40.9614C27.4651 41.2356 27.7871 41.5526 28.0618 41.9123C28.3366 42.272 28.5295 42.6706 28.6405 43.108C28.7546 43.5415 28.7553 44.006 28.6427 44.5015C28.53 44.9971 28.2725 45.5158 27.8701 46.0577C27.2321 46.9168 26.4054 47.5017 25.3899 47.8125L24.9932 46.7239C25.4743 46.5456 25.8604 46.3403 26.1513 46.1079C26.4451 45.8715 26.6875 45.6249 26.8783 45.3679C27.2867 44.818 27.429 44.2573 27.3053 43.6859C27.1775 43.1115 26.7965 42.5888 26.1623 42.1178L21.6523 38.7687L19.8146 41.2435L18.8692 40.5415L21.5923 36.8745ZM33.2914 33.612C33.7731 33.9697 34.1097 34.4096 34.3012 34.9317C34.4917 35.4468 34.5219 36.0142 34.3918 36.6338C34.2607 37.2464 33.9522 37.8799 33.4663 38.5342C32.9953 39.1685 32.4787 39.6629 31.9164 40.0176C31.354 40.3723 30.7746 40.5991 30.1781 40.6979L29.9186 39.4496C30.4022 39.3603 30.8609 39.1871 31.2947 38.9301C31.7285 38.673 32.1302 38.2956 32.4998 37.7978C32.7413 37.4727 32.9127 37.1329 33.014 36.7784C33.1143 36.4169 33.1206 36.0729 33.0331 35.7463C32.9445 35.4127 32.7376 35.1252 32.4125 34.8837C32.1556 34.6929 31.898 34.5826 31.6399 34.5529C31.3807 34.5161 31.0855 34.574 30.7542 34.7266C30.4229 34.8792 30.0176 35.1356 29.5383 35.4959C28.6635 36.154 27.873 36.5853 27.167 36.7897C26.4609 36.994 25.7788 36.8518 25.1204 36.3629C24.6909 36.0439 24.4015 35.6453 24.2522 35.167C24.0989 34.6857 24.0835 34.1698 24.2059 33.6192C24.3283 33.0686 24.5892 32.5244 24.9886 31.9865C25.4209 31.4044 25.8822 30.9592 26.3728 30.6509C26.8663 30.3385 27.3973 30.1225 27.9657 30.0028L28.2205 31.2196C27.739 31.3229 27.3133 31.5019 26.9435 31.7567C26.5727 32.0044 26.2576 32.3029 25.9983 32.6522C25.6704 33.0937 25.488 33.5406 25.4512 33.9928C25.4103 34.442 25.5845 34.8112 25.9739 35.1003C26.2068 35.2732 26.4517 35.3585 26.7087 35.3563C26.9616 35.3511 27.2652 35.2527 27.6193 35.061C27.9763 34.8653 28.4219 34.5672 28.956 34.1666C29.4194 33.8194 29.883 33.5347 30.347 33.3125C30.8099 33.0833 31.2859 32.979 31.775 32.9997C32.2601 33.0174 32.7656 33.2215 33.2914 33.612ZM36.9723 24.8436C37.8153 25.4696 38.4735 26.139 38.9468 26.8517C39.4202 27.5645 39.6682 28.2873 39.6907 29.0202C39.7121 29.7461 39.4695 30.4503 38.9627 31.1327C38.4559 31.8151 37.8545 32.256 37.1585 32.4553C36.4614 32.6476 35.7052 32.6217 34.8901 32.3776C34.0749 32.1335 33.2378 31.6924 32.3788 31.0545C31.5318 30.4255 30.8716 29.7547 30.3982 29.0419C29.9208 28.3262 29.6693 27.6038 29.6439 26.875C29.6174 26.1391 29.8575 25.4299 30.3642 24.7475C30.871 24.0651 31.4729 23.6277 32.17 23.4354C32.8701 23.2391 33.6297 23.2645 34.4489 23.5116C35.2681 23.7587 36.1092 24.2027 36.9723 24.8436ZM36.0467 26.09C34.9548 25.2792 34.0186 24.8081 33.2379 24.6769C32.4603 24.5415 31.8255 24.8051 31.3337 25.4674C30.8418 26.1298 30.7736 26.8171 31.129 27.5294C31.4874 28.2377 32.2125 28.9973 33.3043 29.8081C34.3922 30.6159 35.3259 31.082 36.1055 31.2063C36.8841 31.3236 37.5133 31.0591 37.9933 30.4128C38.4851 29.7505 38.5559 29.0681 38.2055 28.3658C37.8542 27.6564 37.1345 26.8979 36.0467 26.09ZM44.9569 22.7463L35.6822 20.2029C35.8287 20.2992 36.0814 20.462 36.4405 20.6913C36.7986 20.9136 37.2073 21.1766 37.6668 21.4805C38.1222 21.7813 38.5687 22.0942 39.0063 22.4191L42.9984 25.3837L42.1935 26.4675L33.8962 20.3059L35.0721 18.7223L44.3873 21.249C44.2448 21.1557 44.0046 21.0053 43.6666 20.7979C43.3246 20.5875 42.9259 20.3319 42.4705 20.0311C42.018 19.7262 41.5429 19.389 41.0451 19.0194L37.053 16.0548L37.8578 14.971L46.1552 21.1326L44.9569 22.7463Z" fill="white"/>
</svg>
